Coordinates
version=1
nRows=60
nColumns=12
inDegrees=yes

Units are S.I. units (second, meters, Newtons, ...)
Angles are in degrees

endheader
time	SC_y	SC_z	SC_x	AC_y	AC_z	AC_x	GH_y	GH_z	GH_yy	EL_x	PS_y
       0.0              -46.07          1.311           68.2          31.57          8.631          12.78          56.85          5.866         -157.9          44.03          58.56
   0.03991              -46.07          1.311          68.19          31.57          8.629          12.78          56.85          5.871         -157.9          44.03          58.55
   0.07983              -46.07          1.311          68.19          31.58          8.626          12.78          56.85          5.875         -157.8          44.02          58.54
    0.1197              -46.08          1.311          68.19          31.58          8.624          12.78          56.85           5.88         -157.8          44.02          58.54
    0.1597              -46.08          1.312          68.19          31.59          8.621          12.78          56.85          5.885         -157.8          44.02          58.53
    0.1996              -46.08          1.312          68.19          31.59          8.619          12.77          56.85          5.891         -157.8          44.02          58.52
    0.2395              -46.08          1.312          68.19           31.6          8.616          12.77          56.86          5.897         -157.8          44.02          58.51
    0.2794              -46.09          1.312          68.19           31.6          8.612          12.77          56.86          5.903         -157.7          44.01           58.5
    0.3193              -46.09          1.312          68.19          31.61          8.609          12.77          56.86           5.91         -157.7          44.01          58.49
    0.3592              -46.09          1.313          68.19          31.62          8.605          12.77          56.86          5.918         -157.7          44.01          58.48
    0.3991               -46.1          1.313          68.19          31.63          8.601          12.77          56.86          5.926         -157.6           44.0          58.47
     0.439               -46.1          1.313          68.19          31.64          8.597          12.77          56.86          5.934         -157.6           44.0          58.46
     0.479               -46.1          1.313          68.19          31.65          8.593          12.77          56.87          5.943         -157.6           44.0          58.45
    0.5189              -46.11          1.314          68.19          31.66          8.588          12.76          56.87          5.953         -157.5          43.99          58.43
    0.5588              -46.11          1.314          68.19          31.67          8.582          12.76          56.87          5.964         -157.5          43.99          58.42
    0.5987              -46.12          1.314          68.19          31.68          8.577          12.76          56.87          5.976         -157.4          43.98           58.4
    0.6386              -46.13          1.315          68.19          31.69           8.57          12.76          56.88          5.988         -157.4          43.98          58.38
    0.6785              -46.13          1.315          68.18           31.7          8.564          12.76          56.88          6.002         -157.3          43.97          58.36
    0.7184              -46.14          1.316          68.18          31.72          8.556          12.75          56.88          6.017         -157.2          43.97          58.34
    0.7584              -46.15          1.316          68.18          31.74          8.548          12.75          56.89          6.033         -157.2          43.96          58.32
    0.7983              -46.15          1.317          68.18          31.76          8.539          12.75          56.89          6.051         -157.1          43.95          58.29
    0.8382              -46.16          1.317          68.18          31.78          8.529          12.74           56.9          6.071         -157.0          43.95          58.26
    0.8781              -46.17          1.318          68.18           31.8          8.518          12.74           56.9          6.093         -156.9          43.94          58.23
     0.918              -46.19          1.319          68.18          31.82          8.506          12.74          56.91          6.118         -156.8          43.93           58.2
    0.9579               -46.2           1.32          68.17          31.85          8.493          12.73          56.92          6.145         -156.7          43.92          58.16
    0.9978              -46.21          1.321          68.17          31.88          8.478          12.73          56.92          6.175         -156.5           43.9          58.12
     1.038              -46.23          1.322          68.17          31.92          8.461          12.72          56.93          6.209         -156.4          43.89          58.07
     1.078              -46.25          1.323          68.17          31.95          8.443          12.71          56.94          6.247         -156.2          43.88          58.01
     1.118              -46.26          1.324          68.16           32.0          8.421          12.71          56.95           6.29         -156.0          43.86          57.95
     1.157              -46.29          1.326          68.16          32.05          8.397           12.7          56.96          6.339         -155.8          43.84          57.88
     1.197              -46.31          1.327          68.15           32.1           8.37          12.69          56.98          6.394         -155.6          43.82           57.8
     1.237              -46.34          1.329          68.15          32.17          8.338          12.68          56.99          6.458         -155.3          43.79          57.71
     1.277              -46.38          1.332          68.14          32.24          8.302          12.66          57.01          6.532         -155.0          43.76           57.6
     1.317              -46.42          1.334          68.14          32.33          8.259          12.65          57.03          6.618         -154.6          43.73          57.48
     1.357              -46.46          1.337          68.13          32.43          8.209          12.63          57.05          6.718         -154.2          43.69          57.34
     1.397              -46.52          1.341          68.12          32.55          8.151          12.61          57.08          6.837         -153.7          43.64          57.17
     1.437              -46.58          1.346          68.11           32.7          8.081          12.59          57.12          6.977         -153.1          43.59          56.97
     1.477              -46.66          1.351          68.09          32.87          7.998          12.56          57.16          7.146         -152.3          43.52          56.73
     1.517              -46.75          1.357          68.08          33.07          7.897          12.52          57.21           7.35         -151.5          43.44          56.43
     1.557              -46.87          1.365          68.06          33.33          7.774          12.48          57.27          7.599         -150.4          43.34          56.08
     1.597              -47.01          1.374          68.03          33.64          7.622          12.43          57.34          7.906         -149.0          43.22          55.64
     1.636              -47.19          1.386           68.0          34.03          7.432          12.36          57.43          8.289         -147.4          43.06          55.09
     1.676              -47.41          1.401          67.97          34.52          7.194          12.28          57.55          8.772         -145.3          42.87           54.4
     1.716              -47.69           1.42          67.92          35.15           6.89          12.17           57.7          9.386         -142.6          42.63          53.52
     1.756              -48.06          1.445          67.86          35.94          6.502          12.04          57.89          10.17         -139.2          42.31           52.4
     1.796              -48.52          1.476          67.78          36.97          6.003          11.87          58.13          11.18         -134.9          41.91          50.95
     1.836              -49.12          1.516          67.67          38.28          5.366          11.64          58.44          12.47         -129.3           41.4          49.11
     1.876              -49.87          1.566          67.55          39.92          4.565          11.37          58.83          14.09         -122.3          40.76          46.79
     1.916              -50.78          1.627          67.39          41.93          3.589          11.03          59.31          16.06         -113.7          39.97          43.97
     1.956              -51.83          1.698          67.21          44.26          2.458          10.63          59.86          18.35         -103.8          39.06           40.7
     1.996              -52.98          1.775          67.02          46.77          1.233          10.21          60.46          20.83         -93.08          38.07          37.15
     2.036              -54.12          1.852          66.82          49.29       0.008054          9.784          61.06           23.3         -82.35          37.09          33.61
     2.075              -55.18          1.923          66.64          51.62         -1.123          9.391          61.61          25.59         -72.44          36.18          30.34
     2.115              -56.09          1.984          66.48          53.62         -2.099          9.052          62.09          27.56         -63.89          35.39          27.51
     2.155              -56.83          2.035          66.36          55.27           -2.9          8.774          62.48          29.18         -56.87          34.75           25.2
     2.195              -57.43          2.075          66.26          56.58         -3.537          8.553          62.79          30.47         -51.29          34.24          23.35
     2.235              -57.89          2.106          66.18           57.6         -4.036           8.38          63.03          31.48         -46.93          33.83          21.91
     2.275              -58.26           2.13          66.11           58.4         -4.424          8.245          63.22          32.27         -43.52          33.52          20.79
     2.315              -58.54          2.149          66.07          59.03         -4.728          8.139          63.37          32.88         -40.86          33.28          19.91
     2.355              -58.76          2.164          66.03          59.52         -4.967          8.056          63.49          33.36         -38.77          33.08          19.22
